<svg xmlns="http://www.w3.org/2000/svg" xmlns:xlink="http://www.w3.org/1999/xlink" width="400" zoomAndPan="magnify" viewBox="0 0 300 74.999997" height="100" preserveAspectRatio="xMidYMid meet" version="1.2"><defs/><g id="52bf9465ce"><g style="fill:#d9d9d9;fill-opacity:1;"><g transform="translate(19.147914, 51.350132)"><path style="stroke:none" d="M 8.203125 -0.09375 C 7.546875 -0.09375 6.835938 -0.0664062 6.078125 -0.015625 C 5.316406 0.0234375 4.582031 -0.0234375 3.875 -0.171875 C 3.164062 -0.316406 2.53125 -0.65625 1.96875 -1.1875 C 1.382812 -1.78125 1.023438 -2.488281 0.890625 -3.3125 C 0.753906 -4.132812 0.71875 -5 0.78125 -5.90625 C 0.851562 -6.8125 0.90625 -7.625 0.9375 -8.34375 C 1 -9.757812 1.0625 -11.164062 1.125 -12.5625 C 1.195312 -13.96875 1.265625 -15.378906 1.328125 -16.796875 C 1.398438 -18.441406 1.476562 -20.097656 1.5625 -21.765625 C 1.644531 -23.429688 1.703125 -25.085938 1.734375 -26.734375 C 1.796875 -27.648438 1.789062 -28.664062 1.71875 -29.78125 C 1.65625 -30.90625 1.789062 -31.914062 2.125 -32.8125 C 2.414062 -33.632812 2.960938 -34.25 3.765625 -34.65625 C 4.578125 -35.070312 5.523438 -35.335938 6.609375 -35.453125 C 7.703125 -35.566406 8.832031 -35.582031 10 -35.5 C 11.175781 -35.414062 12.28125 -35.300781 13.3125 -35.15625 C 14.351562 -35.007812 15.203125 -34.882812 15.859375 -34.78125 C 16.617188 -34.6875 17.34375 -34.539062 18.03125 -34.34375 C 18.726562 -34.144531 19.3125 -33.820312 19.78125 -33.375 C 20.257812 -32.925781 20.550781 -32.257812 20.65625 -31.375 C 20.78125 -30.445312 20.628906 -29.601562 20.203125 -28.84375 C 19.773438 -28.09375 19.132812 -27.535156 18.28125 -27.171875 C 17.625 -26.910156 16.960938 -26.828125 16.296875 -26.921875 C 15.640625 -27.023438 14.984375 -27.140625 14.328125 -27.265625 C 13.671875 -27.398438 13.03125 -27.382812 12.40625 -27.21875 C 12.007812 -27.15625 11.613281 -26.890625 11.21875 -26.421875 C 10.820312 -25.960938 10.597656 -25.453125 10.546875 -24.890625 C 10.492188 -24.335938 10.75 -23.847656 11.3125 -23.421875 C 11.738281 -23.117188 12.347656 -22.984375 13.140625 -23.015625 C 13.929688 -23.054688 14.742188 -23.109375 15.578125 -23.171875 C 16.421875 -23.234375 17.109375 -23.164062 17.640625 -22.96875 C 18.492188 -22.644531 19.09375 -22.21875 19.4375 -21.6875 C 19.78125 -21.164062 19.988281 -20.472656 20.0625 -19.609375 C 20.1875 -18.585938 20.082031 -17.554688 19.75 -16.515625 C 19.425781 -15.484375 18.722656 -14.800781 17.640625 -14.46875 C 16.984375 -14.3125 16.273438 -14.320312 15.515625 -14.5 C 14.753906 -14.675781 14.007812 -14.804688 13.28125 -14.890625 C 12.5625 -14.972656 11.921875 -14.753906 11.359375 -14.234375 C 10.671875 -13.566406 10.382812 -12.976562 10.5 -12.46875 C 10.613281 -11.957031 10.96875 -11.519531 11.5625 -11.15625 C 12.15625 -10.800781 12.804688 -10.523438 13.515625 -10.328125 C 14.222656 -10.128906 14.804688 -10.015625 15.265625 -9.984375 C 15.953125 -9.953125 16.707031 -9.957031 17.53125 -10 C 18.363281 -10.050781 19.171875 -10.035156 19.953125 -9.953125 C 20.742188 -9.867188 21.4375 -9.597656 22.03125 -9.140625 C 22.59375 -8.742188 22.945312 -8.179688 23.09375 -7.453125 C 23.238281 -6.734375 23.257812 -6.003906 23.15625 -5.265625 C 23.0625 -4.523438 22.921875 -3.875 22.734375 -3.3125 C 22.234375 -2.09375 21.519531 -1.304688 20.59375 -0.953125 C 19.675781 -0.609375 18.59375 -0.40625 17.34375 -0.34375 C 15.820312 -0.28125 14.304688 -0.238281 12.796875 -0.21875 C 11.285156 -0.207031 9.753906 -0.164062 8.203125 -0.09375 Z M 8.203125 -0.09375 "/></g></g><g style="fill:#d9d9d9;fill-opacity:1;"><g transform="translate(43.103402, 51.350132)"><path style="stroke:none" d="M 19.171875 3.40625 C 18.441406 2.550781 17.890625 1.515625 17.515625 0.296875 C 17.140625 -0.921875 16.851562 -2.160156 16.65625 -3.421875 C 16.457031 -4.691406 16.257812 -5.859375 16.0625 -6.921875 C 15.925781 -7.609375 15.757812 -8.3125 15.5625 -9.03125 C 15.363281 -9.757812 15.039062 -10.351562 14.59375 -10.8125 C 14.15625 -11.28125 13.472656 -11.460938 12.546875 -11.359375 C 11.785156 -11.296875 11.09375 -11.03125 10.46875 -10.5625 C 9.84375 -10.101562 9.269531 -9.613281 8.75 -9.09375 C 8.019531 -8.4375 7.628906 -7.867188 7.578125 -7.390625 C 7.535156 -6.910156 7.515625 -6.207031 7.515625 -5.28125 C 7.472656 -4.625 7.351562 -3.890625 7.15625 -3.078125 C 6.96875 -2.273438 6.675781 -1.582031 6.28125 -1 C 5.882812 -0.425781 5.390625 -0.109375 4.796875 -0.046875 C 4.203125 0.015625 3.507812 -0.363281 2.71875 -1.1875 C 1.957031 -1.976562 1.4375 -2.972656 1.15625 -4.171875 C 0.875 -5.378906 0.742188 -6.625 0.765625 -7.90625 C 0.785156 -9.1875 0.828125 -10.320312 0.890625 -11.3125 C 0.953125 -12.394531 1.070312 -13.546875 1.25 -14.765625 C 1.4375 -15.984375 1.734375 -17.171875 2.140625 -18.328125 C 2.554688 -19.484375 3.144531 -20.472656 3.90625 -21.296875 C 4.59375 -22.054688 5.175781 -22.425781 5.65625 -22.40625 C 6.132812 -22.382812 6.535156 -22.128906 6.859375 -21.640625 C 7.191406 -21.148438 7.445312 -20.539062 7.625 -19.8125 C 7.8125 -19.082031 7.945312 -18.347656 8.03125 -17.609375 C 8.113281 -16.867188 8.15625 -16.269531 8.15625 -15.8125 C 9.144531 -16.769531 10.210938 -17.535156 11.359375 -18.109375 C 12.515625 -18.679688 13.664062 -19 14.8125 -19.0625 C 15.96875 -19.132812 17.046875 -18.863281 18.046875 -18.25 C 19.054688 -17.644531 19.890625 -16.632812 20.546875 -15.21875 C 21.273438 -13.664062 21.820312 -11.972656 22.1875 -10.140625 C 22.550781 -8.316406 22.796875 -6.484375 22.921875 -4.640625 C 23.054688 -2.796875 23.125 -1.035156 23.125 0.640625 C 23.125 1.265625 23.03125 1.898438 22.84375 2.546875 C 22.664062 3.191406 22.410156 3.707031 22.078125 4.09375 C 21.753906 4.488281 21.34375 4.660156 20.84375 4.609375 C 20.351562 4.566406 19.796875 4.164062 19.171875 3.40625 Z M 19.171875 3.40625 "/></g></g><g style="fill:#d9d9d9;fill-opacity:1;"><g transform="translate(66.960105, 51.350132)"><path style="stroke:none" d="M 13.09375 3.515625 C 12.363281 4.097656 11.753906 4.265625 11.265625 4.015625 C 10.773438 3.773438 10.367188 3.316406 10.046875 2.640625 C 9.734375 1.960938 9.492188 1.238281 9.328125 0.46875 C 9.171875 -0.300781 9.039062 -0.9375 8.9375 -1.4375 C 8.539062 -3.800781 8.234375 -6.191406 8.015625 -8.609375 C 7.804688 -11.035156 7.65625 -13.453125 7.5625 -15.859375 C 7.488281 -16.941406 7.492188 -18.082031 7.578125 -19.28125 C 7.660156 -20.488281 7.675781 -21.5625 7.625 -22.5 C 7.582031 -23.4375 7.347656 -24.054688 6.921875 -24.359375 L 4.796875 -24.703125 C 4.296875 -24.765625 3.789062 -24.84375 3.28125 -24.9375 C 2.769531 -25.039062 2.285156 -25.191406 1.828125 -25.390625 C 1.003906 -25.785156 0.4375 -26.351562 0.125 -27.09375 C -0.1875 -27.84375 0 -28.628906 0.6875 -29.453125 C 1.21875 -30.078125 1.925781 -30.476562 2.8125 -30.65625 C 3.707031 -30.832031 4.53125 -30.957031 5.28125 -31.03125 L 8.109375 -31.921875 C 8.335938 -32.273438 8.457031 -32.773438 8.46875 -33.421875 C 8.488281 -34.066406 8.53125 -34.601562 8.59375 -35.03125 C 8.757812 -35.914062 8.988281 -36.867188 9.28125 -37.890625 C 9.582031 -38.910156 10.113281 -39.734375 10.875 -40.359375 C 11.53125 -41.023438 12.097656 -41.25 12.578125 -41.03125 C 13.054688 -40.8125 13.457031 -40.347656 13.78125 -39.640625 C 14.113281 -38.941406 14.398438 -38.140625 14.640625 -37.234375 C 14.890625 -36.328125 15.101562 -35.46875 15.28125 -34.65625 C 15.46875 -33.851562 15.628906 -33.269531 15.765625 -32.90625 C 15.921875 -32.507812 16.023438 -32.234375 16.078125 -32.078125 C 16.128906 -31.929688 16.238281 -31.847656 16.40625 -31.828125 C 16.570312 -31.816406 16.914062 -31.796875 17.4375 -31.765625 C 18.425781 -31.703125 19.164062 -31.644531 19.65625 -31.59375 C 20.15625 -31.539062 20.566406 -31.472656 20.890625 -31.390625 C 21.222656 -31.316406 21.65625 -31.179688 22.1875 -30.984375 C 22.84375 -30.742188 23.53125 -30.394531 24.25 -29.9375 C 24.976562 -29.476562 25.441406 -28.867188 25.640625 -28.109375 C 25.867188 -27.347656 25.726562 -26.722656 25.21875 -26.234375 C 24.707031 -25.742188 24.070312 -25.375 23.3125 -25.125 C 22.5625 -24.875 21.90625 -24.6875 21.34375 -24.5625 L 17.296875 -24.0625 C 16.898438 -23.957031 16.660156 -23.921875 16.578125 -23.953125 C 16.492188 -23.992188 16.457031 -23.992188 16.46875 -23.953125 C 16.488281 -23.921875 16.414062 -23.742188 16.25 -23.421875 L 16.25 -21.6875 C 16.25 -18.789062 16.191406 -15.867188 16.078125 -12.921875 C 15.960938 -9.972656 15.742188 -7.03125 15.421875 -4.09375 C 15.316406 -3.375 15.207031 -2.507812 15.09375 -1.5 C 14.976562 -0.5 14.769531 0.457031 14.46875 1.375 C 14.175781 2.300781 13.71875 3.015625 13.09375 3.515625 Z M 13.09375 3.515625 "/></g></g><g style="fill:#d9d9d9;fill-opacity:1;"><g transform="translate(92.693731, 51.350132)"><path style="stroke:none" d="M 2.765625 -1.734375 C 2.003906 -3.046875 1.46875 -4.515625 1.15625 -6.140625 C 0.84375 -7.773438 0.703125 -9.460938 0.734375 -11.203125 C 0.773438 -12.953125 0.898438 -14.664062 1.109375 -16.34375 C 1.328125 -18.03125 1.582031 -19.597656 1.875 -21.046875 C 1.976562 -21.578125 2.117188 -22.195312 2.296875 -22.90625 C 2.472656 -23.613281 2.726562 -24.28125 3.0625 -24.90625 C 3.394531 -25.53125 3.835938 -25.957031 4.390625 -26.1875 C 5.085938 -26.476562 5.695312 -26.472656 6.21875 -26.171875 C 6.75 -25.878906 7.195312 -25.421875 7.5625 -24.796875 C 7.925781 -24.171875 8.210938 -23.519531 8.421875 -22.84375 C 8.640625 -22.175781 8.796875 -21.59375 8.890625 -21.09375 C 9.421875 -21.988281 10.046875 -22.820312 10.765625 -23.59375 C 11.492188 -24.363281 12.328125 -24.945312 13.265625 -25.34375 C 14.203125 -25.738281 15.210938 -25.804688 16.296875 -25.546875 C 17.253906 -25.316406 18.128906 -24.835938 18.921875 -24.109375 C 19.710938 -23.378906 20.367188 -22.546875 20.890625 -21.609375 C 21.421875 -20.671875 21.738281 -19.726562 21.84375 -18.78125 C 21.90625 -18.019531 21.765625 -17.328125 21.421875 -16.703125 C 21.078125 -16.078125 20.488281 -15.726562 19.65625 -15.65625 C 18.90625 -15.625 18.316406 -15.847656 17.890625 -16.328125 C 17.460938 -16.804688 16.96875 -17.242188 16.40625 -17.640625 C 15.550781 -18.296875 14.757812 -18.539062 14.03125 -18.375 C 13.300781 -18.207031 12.648438 -17.816406 12.078125 -17.203125 C 11.503906 -16.597656 10.988281 -15.90625 10.53125 -15.125 C 10.03125 -14.300781 9.585938 -13.441406 9.203125 -12.546875 C 8.828125 -11.660156 8.5625 -10.738281 8.40625 -9.78125 C 8.207031 -8.726562 8.070312 -7.664062 8 -6.59375 C 7.9375 -5.519531 7.820312 -4.457031 7.65625 -3.40625 C 7.488281 -2.414062 7.140625 -1.582031 6.609375 -0.90625 C 6.085938 -0.238281 5.476562 0.0664062 4.78125 0.015625 C 4.09375 -0.0234375 3.421875 -0.609375 2.765625 -1.734375 Z M 2.765625 -1.734375 "/></g></g><g style="fill:#d9d9d9;fill-opacity:1;"><g transform="translate(115.019253, 51.350132)"><path style="stroke:none" d="M 6.625 -2.21875 C 5.070312 -2.488281 3.84375 -3.097656 2.9375 -4.046875 C 2.03125 -5.003906 1.410156 -6.15625 1.078125 -7.5 C 0.753906 -8.851562 0.664062 -10.269531 0.8125 -11.75 C 0.957031 -13.238281 1.3125 -14.648438 1.875 -15.984375 C 2.4375 -17.316406 3.144531 -18.445312 4 -19.375 C 5.082031 -20.519531 6.457031 -21.375 8.125 -21.9375 C 9.789062 -22.5 11.414062 -22.546875 13 -22.078125 C 13.820312 -21.847656 14.578125 -21.425781 15.265625 -20.8125 C 15.953125 -20.207031 16.492188 -19.507812 16.890625 -18.71875 C 17.285156 -17.9375 17.453125 -17.125 17.390625 -16.28125 C 17.328125 -15.4375 16.960938 -14.640625 16.296875 -13.890625 C 15.671875 -13.191406 14.894531 -12.675781 13.96875 -12.34375 C 13.050781 -12.019531 12.148438 -11.773438 11.265625 -11.609375 C 10.671875 -11.515625 10.0625 -11.445312 9.4375 -11.40625 C 8.8125 -11.375 8.273438 -11.21875 7.828125 -10.9375 C 7.378906 -10.664062 7.125 -10.097656 7.0625 -9.234375 C 7 -8.347656 7.140625 -7.804688 7.484375 -7.609375 C 7.828125 -7.410156 8.269531 -7.429688 8.8125 -7.671875 C 9.363281 -7.921875 9.929688 -8.257812 10.515625 -8.6875 C 11.109375 -9.125 11.648438 -9.539062 12.140625 -9.9375 C 12.640625 -10.332031 12.988281 -10.578125 13.1875 -10.671875 C 14.238281 -11.128906 14.992188 -11.160156 15.453125 -10.765625 C 15.921875 -10.367188 16.171875 -9.765625 16.203125 -8.953125 C 16.234375 -8.148438 16.109375 -7.335938 15.828125 -6.515625 C 15.554688 -5.691406 15.203125 -5.066406 14.765625 -4.640625 C 13.742188 -3.617188 12.484375 -2.898438 10.984375 -2.484375 C 9.492188 -2.078125 8.039062 -1.988281 6.625 -2.21875 Z M 9.875 -14.71875 C 10.207031 -14.625 10.632812 -14.632812 11.15625 -14.75 C 11.6875 -14.863281 12.132812 -15.0625 12.5 -15.34375 C 12.863281 -15.625 12.960938 -15.925781 12.796875 -16.25 C 12.171875 -16.351562 11.59375 -16.269531 11.0625 -16 C 10.539062 -15.738281 10.144531 -15.3125 9.875 -14.71875 Z M 9.875 -14.71875 "/></g></g><g style="fill:#d9d9d9;fill-opacity:1;"><g transform="translate(133.146392, 51.350132)"><path style="stroke:none" d=""/></g></g><g style="fill:#d9d9d9;fill-opacity:1;"><g transform="translate(145.494582, 51.350132)"><path style="stroke:none" d="M 3.796875 -0.296875 C 2.515625 -0.660156 1.660156 -1.273438 1.234375 -2.140625 C 0.804688 -3.015625 0.640625 -4.019531 0.734375 -5.15625 C 0.835938 -6.300781 1.046875 -7.441406 1.359375 -8.578125 C 1.671875 -9.710938 1.941406 -10.738281 2.171875 -11.65625 C 2.765625 -14.09375 3.421875 -16.519531 4.140625 -18.9375 C 4.867188 -21.363281 5.628906 -23.78125 6.421875 -26.1875 C 7.078125 -28.226562 8.03125 -29.878906 9.28125 -31.140625 C 10.539062 -32.410156 12.320312 -33.082031 14.625 -33.15625 C 15.90625 -33.1875 16.957031 -32.878906 17.78125 -32.234375 C 18.601562 -31.597656 19.269531 -30.757812 19.78125 -29.71875 C 20.289062 -28.675781 20.726562 -27.578125 21.09375 -26.421875 C 21.457031 -25.273438 21.804688 -24.207031 22.140625 -23.21875 L 27.921875 -6.96875 C 28.304688 -5.875 28.484375 -4.898438 28.453125 -4.046875 C 28.421875 -3.191406 27.925781 -2.367188 26.96875 -1.578125 C 26.019531 -0.816406 25.097656 -0.46875 24.203125 -0.53125 C 23.316406 -0.601562 22.53125 -1.148438 21.84375 -2.171875 C 21.507812 -2.671875 21.234375 -3.296875 21.015625 -4.046875 C 20.804688 -4.804688 20.578125 -5.546875 20.328125 -6.265625 C 20.078125 -6.992188 19.722656 -7.539062 19.265625 -7.90625 C 19.203125 -7.96875 18.800781 -8.03125 18.0625 -8.09375 C 17.320312 -8.164062 16.460938 -8.222656 15.484375 -8.265625 C 14.515625 -8.316406 13.625 -8.332031 12.8125 -8.3125 C 12.007812 -8.300781 11.507812 -8.210938 11.3125 -8.046875 C 10.851562 -7.648438 10.53125 -7.023438 10.34375 -6.171875 C 10.164062 -5.316406 10.003906 -4.4375 9.859375 -3.53125 C 9.710938 -2.625 9.421875 -1.910156 8.984375 -1.390625 C 8.398438 -0.660156 7.613281 -0.226562 6.625 -0.09375 C 5.632812 0.03125 4.691406 -0.0351562 3.796875 -0.296875 Z M 13.59375 -15.0625 C 14.050781 -15.132812 14.5 -15.21875 14.9375 -15.3125 C 15.382812 -15.414062 15.820312 -15.5 16.25 -15.5625 C 16.019531 -16.21875 15.796875 -16.875 15.578125 -17.53125 C 15.367188 -18.195312 15.164062 -18.859375 14.96875 -19.515625 C 14.738281 -18.785156 14.507812 -18.050781 14.28125 -17.3125 C 14.050781 -16.570312 13.820312 -15.820312 13.59375 -15.0625 Z M 13.59375 -15.0625 "/></g></g><g style="fill:#d9d9d9;fill-opacity:1;"><g transform="translate(174.735097, 51.350132)"><path style="stroke:none" d="M 25.890625 2.328125 C 25.265625 1.765625 24.742188 0.992188 24.328125 0.015625 C 23.921875 -0.953125 23.566406 -1.992188 23.265625 -3.109375 C 22.972656 -4.234375 22.710938 -5.320312 22.484375 -6.375 C 22.253906 -7.425781 22.039062 -8.347656 21.84375 -9.140625 C 21.875 -9.003906 21.65625 -8.753906 21.1875 -8.390625 C 20.726562 -8.035156 20.191406 -7.644531 19.578125 -7.21875 C 18.972656 -6.789062 18.414062 -6.410156 17.90625 -6.078125 C 17.394531 -5.742188 17.09375 -5.5625 17 -5.53125 C 15.945312 -5.164062 15.125 -5.179688 14.53125 -5.578125 C 13.9375 -5.972656 13.472656 -6.566406 13.140625 -7.359375 C 12.804688 -8.148438 12.492188 -8.925781 12.203125 -9.6875 C 11.773438 -10.90625 11.222656 -11.601562 10.546875 -11.78125 C 9.867188 -11.96875 9.003906 -11.597656 7.953125 -10.671875 C 7.128906 -9.984375 6.609375 -9.109375 6.390625 -8.046875 C 6.179688 -6.992188 6.078125 -5.898438 6.078125 -4.765625 C 6.078125 -3.628906 5.976562 -2.566406 5.78125 -1.578125 C 5.582031 -0.296875 5.191406 0.457031 4.609375 0.6875 C 4.035156 0.914062 3.460938 0.757812 2.890625 0.21875 C 2.316406 -0.320312 1.863281 -1.101562 1.53125 -2.125 C 1.039062 -3.832031 0.773438 -5.640625 0.734375 -7.546875 C 0.703125 -9.460938 0.753906 -11.3125 0.890625 -13.09375 C 0.953125 -13.945312 1.007812 -14.945312 1.0625 -16.09375 C 1.113281 -17.25 1.273438 -18.367188 1.546875 -19.453125 C 1.828125 -20.546875 2.316406 -21.40625 3.015625 -22.03125 C 3.804688 -22.789062 4.488281 -23.078125 5.0625 -22.890625 C 5.632812 -22.710938 6.101562 -22.273438 6.46875 -21.578125 C 6.832031 -20.890625 7.085938 -20.125 7.234375 -19.28125 C 7.378906 -18.445312 7.421875 -17.75 7.359375 -17.1875 C 8.117188 -18.113281 9.066406 -18.75 10.203125 -19.09375 C 11.335938 -19.4375 12.46875 -19.332031 13.59375 -18.78125 C 14.21875 -18.476562 14.742188 -18.0625 15.171875 -17.53125 C 15.597656 -17.007812 15.941406 -16.4375 16.203125 -15.8125 C 16.429688 -15.351562 16.585938 -14.828125 16.671875 -14.234375 C 16.753906 -13.640625 16.960938 -13.144531 17.296875 -12.75 C 18.148438 -13.3125 19.003906 -13.804688 19.859375 -14.234375 C 20.710938 -14.660156 21.578125 -14.835938 22.453125 -14.765625 C 23.328125 -14.703125 24.191406 -14.226562 25.046875 -13.34375 C 25.804688 -12.550781 26.425781 -11.601562 26.90625 -10.5 C 27.382812 -9.394531 27.78125 -8.253906 28.09375 -7.078125 C 28.40625 -5.910156 28.640625 -4.800781 28.796875 -3.75 C 28.867188 -3.425781 28.925781 -2.910156 28.96875 -2.203125 C 29.019531 -1.492188 29.019531 -0.742188 28.96875 0.046875 C 28.925781 0.835938 28.804688 1.53125 28.609375 2.125 C 28.410156 2.71875 28.097656 3.070312 27.671875 3.1875 C 27.242188 3.300781 26.648438 3.015625 25.890625 2.328125 Z M 25.890625 2.328125 "/></g></g><g style="fill:#d9d9d9;fill-opacity:1;"><g transform="translate(204.469534, 51.350132)"><path style="stroke:none" d="M 1.234375 -23.46875 C 0.835938 -24.195312 0.710938 -24.90625 0.859375 -25.59375 C 1.015625 -26.28125 1.320312 -26.835938 1.78125 -27.265625 C 2.238281 -27.703125 2.769531 -27.882812 3.375 -27.8125 C 3.988281 -27.75 4.5625 -27.320312 5.09375 -26.53125 C 5.644531 -25.738281 5.847656 -24.976562 5.703125 -24.25 C 5.554688 -23.53125 5.21875 -22.957031 4.6875 -22.53125 C 4.164062 -22.101562 3.570312 -21.9375 2.90625 -22.03125 C 2.25 -22.132812 1.691406 -22.613281 1.234375 -23.46875 Z M 4.84375 -0.546875 C 4.082031 -0.015625 3.453125 0.148438 2.953125 -0.046875 C 2.460938 -0.242188 2.078125 -0.65625 1.796875 -1.28125 C 1.523438 -1.90625 1.3125 -2.613281 1.15625 -3.40625 C 1.007812 -4.195312 0.921875 -4.945312 0.890625 -5.65625 C 0.859375 -6.363281 0.828125 -6.882812 0.796875 -7.21875 C 0.753906 -8.332031 0.757812 -9.457031 0.8125 -10.59375 C 0.863281 -11.726562 0.921875 -12.859375 0.984375 -13.984375 C 1.015625 -14.578125 1.03125 -15.242188 1.03125 -15.984375 C 1.03125 -16.722656 1.101562 -17.429688 1.25 -18.109375 C 1.40625 -18.785156 1.710938 -19.335938 2.171875 -19.765625 C 2.929688 -20.523438 3.570312 -20.863281 4.09375 -20.78125 C 4.625 -20.695312 5.050781 -20.359375 5.375 -19.765625 C 5.707031 -19.171875 5.960938 -18.46875 6.140625 -17.65625 C 6.328125 -16.851562 6.460938 -16.0625 6.546875 -15.28125 C 6.628906 -14.507812 6.6875 -13.925781 6.71875 -13.53125 C 6.882812 -12.1875 6.914062 -10.847656 6.8125 -9.515625 C 6.71875 -8.179688 6.570312 -6.835938 6.375 -5.484375 C 6.3125 -5.023438 6.242188 -4.460938 6.171875 -3.796875 C 6.109375 -3.140625 5.984375 -2.515625 5.796875 -1.921875 C 5.617188 -1.328125 5.300781 -0.867188 4.84375 -0.546875 Z M 4.84375 -0.546875 "/></g></g><g style="fill:#d9d9d9;fill-opacity:1;"><g transform="translate(212.07602, 51.350132)"><path style="stroke:none" d="M 5.921875 19.125 C 5.097656 18.226562 4.632812 17.140625 4.53125 15.859375 C 4.4375 14.578125 4.457031 13.375 4.59375 12.25 C 4.957031 9.25 5.832031 6.429688 7.21875 3.796875 C 7.9375 2.390625 8.804688 1.023438 9.828125 -0.296875 C 10.253906 -0.859375 10.789062 -1.4375 11.4375 -2.03125 C 12.082031 -2.625 12.421875 -3.265625 12.453125 -3.953125 C 11.753906 -3.222656 10.960938 -2.53125 10.078125 -1.875 C 9.191406 -1.21875 8.273438 -0.738281 7.328125 -0.4375 C 6.390625 -0.144531 5.46875 -0.128906 4.5625 -0.390625 C 3.664062 -0.660156 2.851562 -1.335938 2.125 -2.421875 C 1.363281 -3.535156 0.914062 -4.75 0.78125 -6.0625 C 0.65625 -7.382812 0.75 -8.703125 1.0625 -10.015625 C 1.375 -11.335938 1.8125 -12.5625 2.375 -13.6875 C 3.0625 -14.96875 3.929688 -16.109375 4.984375 -17.109375 C 6.046875 -18.117188 7.242188 -18.828125 8.578125 -19.234375 C 9.910156 -19.648438 11.332031 -19.613281 12.84375 -19.125 C 14.519531 -18.625 15.769531 -17.796875 16.59375 -16.640625 C 17.414062 -15.492188 17.984375 -14.175781 18.296875 -12.6875 C 18.617188 -11.207031 18.796875 -9.710938 18.828125 -8.203125 C 19.191406 -8.429688 19.757812 -8.765625 20.53125 -9.203125 C 21.300781 -9.648438 22.144531 -10.070312 23.0625 -10.46875 C 23.988281 -10.863281 24.890625 -11.144531 25.765625 -11.3125 C 26.640625 -11.476562 27.363281 -11.410156 27.9375 -11.109375 C 28.507812 -10.816406 28.832031 -10.191406 28.90625 -9.234375 C 28.96875 -8.410156 28.785156 -7.675781 28.359375 -7.03125 C 27.929688 -6.394531 27.40625 -5.828125 26.78125 -5.328125 C 26.15625 -4.835938 25.53125 -4.394531 24.90625 -4 C 24.40625 -3.707031 23.898438 -3.421875 23.390625 -3.140625 C 22.878906 -2.859375 22.363281 -2.566406 21.84375 -2.265625 L 20.25 -1.234375 C 19.820312 -0.941406 19.507812 -0.71875 19.3125 -0.5625 C 19.113281 -0.414062 18.960938 -0.234375 18.859375 -0.015625 C 18.765625 0.191406 18.65625 0.539062 18.53125 1.03125 C 18.164062 2.519531 17.882812 4.035156 17.6875 5.578125 C 17.488281 7.128906 17.238281 8.65625 16.9375 10.15625 C 16.644531 11.65625 16.191406 13.09375 15.578125 14.46875 C 14.972656 15.851562 14.0625 17.140625 12.84375 18.328125 C 12.21875 18.953125 11.5 19.460938 10.6875 19.859375 C 9.882812 20.253906 9.070312 20.414062 8.25 20.34375 C 7.425781 20.28125 6.648438 19.875 5.921875 19.125 Z M 10.875 -8.046875 C 11.425781 -8.710938 11.925781 -9.457031 12.375 -10.28125 C 12.820312 -11.101562 13.226562 -11.910156 13.59375 -12.703125 C 12.570312 -12.898438 11.585938 -12.707031 10.640625 -12.125 C 9.703125 -11.550781 9.003906 -10.785156 8.546875 -9.828125 C 8.179688 -9.109375 8.082031 -8.492188 8.25 -7.984375 C 8.414062 -7.472656 8.742188 -7.191406 9.234375 -7.140625 C 9.734375 -7.085938 10.28125 -7.390625 10.875 -8.046875 Z M 8.9375 15.125 C 9.300781 15.1875 9.65625 14.9375 10 14.375 C 10.351562 13.8125 10.675781 13.125 10.96875 12.3125 C 11.257812 11.507812 11.488281 10.769531 11.65625 10.09375 C 11.820312 9.425781 11.921875 9.023438 11.953125 8.890625 C 12.023438 8.398438 12.066406 7.90625 12.078125 7.40625 C 12.097656 6.914062 12.125 6.421875 12.15625 5.921875 C 12.019531 6.085938 11.753906 6.5 11.359375 7.15625 C 10.960938 7.820312 10.539062 8.582031 10.09375 9.4375 C 9.65625 10.289062 9.269531 11.132812 8.9375 11.96875 C 8.613281 12.8125 8.425781 13.53125 8.375 14.125 C 8.320312 14.71875 8.507812 15.050781 8.9375 15.125 Z M 8.9375 15.125 "/></g></g><g style="fill:#d9d9d9;fill-opacity:1;"><g transform="translate(241.711674, 51.350132)"><path style="stroke:none" d="M 13.9375 -1.78125 C 12.289062 -0.53125 10.609375 0.0625 8.890625 0 C 7.179688 -0.0625 5.660156 -0.660156 4.328125 -1.796875 C 2.992188 -2.941406 2.03125 -4.4375 1.4375 -6.28125 C 0.9375 -7.988281 0.703125 -9.804688 0.734375 -11.734375 C 0.773438 -13.660156 1.148438 -15.503906 1.859375 -17.265625 C 2.566406 -19.023438 3.628906 -20.5 5.046875 -21.6875 C 5.992188 -22.476562 7.125 -23.03125 8.4375 -23.34375 C 9.757812 -23.65625 11.0625 -23.703125 12.34375 -23.484375 C 13.632812 -23.273438 14.722656 -22.757812 15.609375 -21.9375 C 16.503906 -21.113281 16.984375 -19.925781 17.046875 -18.375 C 17.566406 -17.0625 17.914062 -15.640625 18.09375 -14.109375 C 18.28125 -12.578125 18.265625 -11.046875 18.046875 -9.515625 C 17.835938 -7.984375 17.394531 -6.539062 16.71875 -5.1875 C 16.050781 -3.832031 15.125 -2.695312 13.9375 -1.78125 Z M 12.0625 -8.453125 C 12.414062 -8.546875 12.679688 -8.863281 12.859375 -9.40625 C 13.046875 -9.957031 13.171875 -10.585938 13.234375 -11.296875 C 13.304688 -12.003906 13.332031 -12.671875 13.3125 -13.296875 C 13.300781 -13.921875 13.273438 -14.332031 13.234375 -14.53125 C 12.941406 -14.289062 12.660156 -14.003906 12.390625 -13.671875 C 12.128906 -13.347656 11.921875 -13.023438 11.765625 -12.703125 C 11.128906 -11.410156 10.785156 -10.320312 10.734375 -9.4375 C 10.691406 -8.550781 11.132812 -8.222656 12.0625 -8.453125 Z M 12.0625 -8.453125 "/></g></g><g style="fill:#d9d9d9;fill-opacity:1;"><g transform="translate(260.67849, 51.350132)"><path style="stroke:none" d="M 7.21875 2.375 C 6.289062 2.695312 5.265625 2.898438 4.140625 2.984375 C 3.023438 3.066406 2.070312 2.75 1.28125 2.03125 C 0.488281 1.300781 0.0664062 0.539062 0.015625 -0.25 C -0.0234375 -1.039062 0.265625 -1.832031 0.890625 -2.625 C 1.378906 -3.25 1.984375 -3.757812 2.703125 -4.15625 C 3.429688 -4.550781 4.164062 -4.9375 4.90625 -5.3125 C 5.65625 -5.6875 6.34375 -6.113281 6.96875 -6.59375 C 7.59375 -7.070312 8.050781 -7.707031 8.34375 -8.5 C 8.644531 -9.21875 8.6875 -9.820312 8.46875 -10.3125 C 8.257812 -10.8125 7.941406 -11.257812 7.515625 -11.65625 C 7.085938 -12.050781 6.65625 -12.460938 6.21875 -12.890625 C 5.5 -13.679688 4.984375 -14.570312 4.671875 -15.5625 C 4.359375 -16.550781 4.332031 -17.585938 4.59375 -18.671875 C 4.988281 -20.421875 5.859375 -21.769531 7.203125 -22.71875 C 8.554688 -23.675781 10.023438 -24.40625 11.609375 -24.90625 C 12.171875 -25.0625 12.828125 -25.210938 13.578125 -25.359375 C 14.335938 -25.515625 15.085938 -25.578125 15.828125 -25.546875 C 16.578125 -25.515625 17.253906 -25.34375 17.859375 -25.03125 C 18.472656 -24.71875 18.910156 -24.179688 19.171875 -23.421875 C 19.535156 -22.429688 19.519531 -21.625 19.125 -21 C 18.726562 -20.375 18.117188 -19.847656 17.296875 -19.421875 C 16.472656 -18.992188 15.609375 -18.582031 14.703125 -18.1875 C 13.796875 -17.789062 13.007812 -17.335938 12.34375 -16.828125 C 11.6875 -16.316406 11.328125 -15.664062 11.265625 -14.875 C 11.234375 -14.21875 11.429688 -13.632812 11.859375 -13.125 C 12.285156 -12.613281 12.773438 -12.140625 13.328125 -11.703125 C 13.890625 -11.273438 14.320312 -10.816406 14.625 -10.328125 C 15.082031 -9.535156 15.328125 -8.703125 15.359375 -7.828125 C 15.398438 -6.953125 15.285156 -6.085938 15.015625 -5.234375 C 14.453125 -3.421875 13.445312 -1.863281 12 -0.5625 C 10.550781 0.738281 8.957031 1.71875 7.21875 2.375 Z M 7.21875 2.375 "/></g></g></g></svg>